HIERARCHY
ROOT Hips
{
	OFFSET -0.001795 -0.223333 0.028219
	CHANNELS 6 Xposition Yposition Zposition Zrotation Yrotation Xrotation 
	JOINT LeftUpLeg
	{
		OFFSET 0.069520 -0.091406 -0.006815
		CHANNELS 3 Zrotation Yrotation Xrotation
		JOINT LeftLeg
		{
			OFFSET 0.034277 -0.375199 -0.004496
			CHANNELS 3 Zrotation Yrotation Xrotation
			JOINT LeftFoot
			{
				OFFSET -0.013596 -0.397961 -0.043693
				CHANNELS 3 Zrotation Yrotation Xrotation
				JOINT LeftToe
				{
					OFFSET 0.026358 -0.055791 0.119288
					CHANNELS 3 Zrotation Yrotation Xrotation
					End Site
					{
						OFFSET 0.000000 0.000000 0.000000
					}
				}
			}
		}
	}
	JOINT RightUpLeg
	{
		OFFSET -0.067670 -0.090522 -0.004320
		CHANNELS 3 Zrotation Yrotation Xrotation
		JOINT RightLeg
		{
			OFFSET -0.038290 -0.382569 -0.008850
			CHANNELS 3 Zrotation Yrotation Xrotation
			JOINT RightFoot
			{
				OFFSET 0.015774 -0.398415 -0.042312
				CHANNELS 3 Zrotation Yrotation Xrotation
				JOINT RightToe
				{
					OFFSET -0.025372 -0.048144 0.123348
					CHANNELS 3 Zrotation Yrotation Xrotation
					End Site
					{
						OFFSET 0.000000 0.000000 0.000000
					}
				}
			}
		}
	}
	JOINT Spine
	{
		OFFSET -0.002533 0.108963 -0.026696
		CHANNELS 3 Zrotation Yrotation Xrotation
		JOINT Spine1
		{
			OFFSET 0.005487 0.135180 0.001092
			CHANNELS 3 Zrotation Yrotation Xrotation
			JOINT Spine2
			{
				OFFSET 0.001457 0.052922 0.025425
				CHANNELS 3 Zrotation Yrotation Xrotation
				JOINT Neck
				{
					OFFSET -0.002778 0.213870 -0.042857
					CHANNELS 3 Zrotation Yrotation Xrotation
					JOINT Head
					{
						OFFSET 0.005152 0.064970 0.051349
						CHANNELS 3 Zrotation Yrotation Xrotation
						End Site
						{
							OFFSET 0.000000 0.000000 0.000000
						}
					}
				}
				JOINT LeftShoulder
				{
					OFFSET 0.078845 0.121749 -0.034090
					CHANNELS 3 Zrotation Yrotation Xrotation
					JOINT LeftArm
					{
						OFFSET 0.090977 0.030469 -0.008868
						CHANNELS 3 Zrotation Yrotation Xrotation
						JOINT LeftForeArm
						{
							OFFSET 0.259612 -0.012772 -0.027456
							CHANNELS 3 Zrotation Yrotation Xrotation
							JOINT LeftHand
							{
								OFFSET 0.249234 0.008986 -0.001171
								CHANNELS 3 Zrotation Yrotation Xrotation
								End Site
								{
									OFFSET 0.000000 0.000000 0.000000
								}
							}
						}
					}
				}
				JOINT RightShoulder
				{
					OFFSET -0.081759 0.118833 -0.038615
					CHANNELS 3 Zrotation Yrotation Xrotation
					JOINT RightArm
					{
						OFFSET -0.096012 0.032551 -0.009143
						CHANNELS 3 Zrotation Yrotation Xrotation
						JOINT RightForeArm
						{
							OFFSET -0.253742 -0.013329 -0.021401
							CHANNELS 3 Zrotation Yrotation Xrotation
							JOINT RightHand
							{
								OFFSET -0.255298 0.007772 -0.005559
								CHANNELS 3 Zrotation Yrotation Xrotation
								End Site
								{
									OFFSET 0.000000 0.000000 0.000000
								}
							}
						}
					}
				}
			}
		}
	}
}
MOTION
Frames: 10
Frame Time: 0.050000
0.000000 0.947705 0.000000 -0.008974 1.665043 3.026553 -2.622437 0.414462 3.161733 -2.619409 0.315891 -3.809689 5.117433 12.250965 7.721627 0.000000 0.000000 0.000000 -3.675848 0.135928 -0.534812 2.590378 -0.247901 2.144021 -5.517204 -14.524635 5.802720 0.000000 0.000000 0.000000 5.178549 -0.798328 8.035942 -5.740155 1.999968 -24.009006 -0.464186 6.316652 28.851765 8.864669 -2.717208 -24.298066 0.000000 0.000000 0.000000 -2.026146 3.529391 -1.610062 -23.975111 -1.704219 -3.498077 13.801433 -17.927397 -1.817011 0.000000 0.000000 0.000000 12.595214 -10.458104 -4.695656 25.634182 5.504100 -3.307421 -15.189201 15.542415 -0.828626 0.000000 0.000000 0.000000 
0.000874 0.947116 0.004895 -0.177147 1.313761 3.477472 -2.317688 0.459574 3.684715 -3.073613 0.357001 -4.861417 6.639927 14.858224 8.096679 0.000000 0.000000 0.000000 -3.525686 0.178282 -1.091842 2.237245 -0.200547 2.119034 -6.390775 -16.302001 4.883597 0.000000 0.000000 0.000000 5.443137 -0.854692 8.311279 -5.582572 1.910454 -25.339151 -0.816933 6.377041 29.122910 7.950524 -2.208253 -24.134552 0.000000 0.000000 0.000000 1.122858 2.706875 -0.844524 -24.726745 -2.118329 -3.616665 13.430437 -14.877175 -1.435312 0.000000 0.000000 0.000000 12.870738 -11.011313 -5.027145 25.622273 3.557090 -3.610789 -16.073262 18.749105 -1.216387 0.000000 0.000000 0.000000 
0.002801 0.945466 0.010085 -0.287972 0.145731 2.884904 -1.790755 0.519023 4.519745 -3.445047 0.389558 -4.512618 6.668265 14.914018 8.480090 0.000000 0.000000 0.000000 -4.127046 0.162084 -0.600413 3.231087 -0.308446 2.886354 -6.125602 -15.821842 5.663795 0.000000 0.000000 0.000000 6.168593 -0.929033 8.589012 -6.357669 2.068763 -25.601314 -0.287992 7.733273 30.233242 8.676401 -2.539646 -24.316020 0.000000 0.000000 0.000000 1.777208 2.678985 -0.746551 -23.467016 -3.417513 -3.273698 13.042448 -17.684547 -1.707584 0.000000 0.000000 0.000000 13.852664 -12.023267 -5.520046 24.942768 4.356918 -3.546774 -15.279983 18.903548 -1.096684 0.000000 0.000000 0.000000 
0.005934 0.943601 0.015706 -0.129598 0.442396 2.250392 -2.282145 0.682449 5.764682 -3.372004 0.381086 -4.027306 7.011474 15.343452 7.072746 0.000000 0.000000 0.000000 -4.698420 0.187725 -0.978366 4.007695 -0.402120 6.508009 -6.252594 -15.958433 4.278809 0.000000 0.000000 0.000000 5.945935 -0.932813 8.975137 -6.383454 2.084696 -25.622664 -0.299963 7.713073 31.311912 9.599443 -3.022082 -24.934849 0.000000 0.000000 0.000000 2.373531 1.608210 -0.310882 -23.861621 -4.686379 -3.213035 15.407003 -18.300552 -2.191700 0.000000 0.000000 0.000000 14.386044 -12.706964 -5.876245 25.435890 4.264889 -3.720908 -17.116533 19.959309 -1.385220 0.000000 0.000000 0.000000 
0.010142 0.942198 0.022203 -0.037506 -0.225202 1.844136 -2.297520 0.708860 5.983587 -3.904490 0.426494 -3.175733 7.092377 15.397558 6.298695 0.000000 0.000000 0.000000 -5.953220 0.325799 -3.311932 5.324422 -0.649338 12.448074 -6.312998 -16.031828 3.661168 0.000000 0.000000 0.000000 5.329967 -0.961711 10.121156 -5.532306 1.881421 -25.902296 -0.497599 8.329373 31.553536 10.960106 -3.827564 -25.106048 0.000000 0.000000 0.000000 1.958017 2.054306 -0.515620 -23.811707 -5.925004 -3.047151 14.388629 -21.133340 -2.352397 0.000000 0.000000 0.000000 14.491786 -13.402225 -6.231603 25.611094 5.062905 -3.644745 -16.137202 20.353509 -1.266159 0.000000 0.000000 0.000000 
0.014615 0.940399 0.029776 -0.139331 -0.488326 0.856749 -2.623726 0.791258 6.548388 -3.681370 0.409415 -1.767265 7.384023 15.814365 5.278951 0.000000 0.000000 0.000000 -6.669099 0.426343 -6.028144 6.022860 -0.892496 20.355997 -6.334022 -16.164790 4.525891 0.000000 0.000000 0.000000 5.091155 -0.981110 10.868949 -5.784779 1.977812 -24.735146 -0.044669 6.990296 31.898613 10.999406 -3.928631 -26.095064 0.000000 0.000000 0.000000 2.032095 1.220718 -0.244768 -25.534781 -6.578074 -3.223829 14.758284 -21.341994 -2.309531 0.000000 0.000000 0.000000 13.490203 -12.883197 -6.055692 27.191302 6.114668 -3.547899 -16.487369 20.457939 -1.372489 0.000000 0.000000 0.000000 
0.018043 0.939826 0.039557 -0.512446 -0.175464 -0.281802 -2.539343 0.988531 8.415211 -3.743019 0.414400 -1.951597 7.088788 15.289651 5.288003 0.000000 0.000000 0.000000 -7.383939 0.522758 -9.997369 7.861161 -1.762432 30.184479 -6.795798 -17.178574 5.159550 0.000000 0.000000 0.000000 4.946950 -1.088166 12.474617 -4.690249 1.728291 -24.836806 -1.237234 5.450499 32.292772 12.085168 -4.769067 -26.637721 0.000000 0.000000 0.000000 0.660975 0.172408 -0.031720 -26.118875 -7.123474 -3.281722 14.330186 -21.743622 -2.145532 0.000000 0.000000 0.000000 15.686559 -12.528716 -6.301702 26.799342 7.245082 -3.324829 -15.761008 23.093982 -1.601325 0.000000 0.000000 0.000000 
0.019993 0.938365 0.052377 -1.085976 -1.309731 -0.260574 -2.283030 1.058941 9.126172 -3.620054 0.410434 -1.400942 7.612045 16.148805 4.163401 0.000000 0.000000 0.000000 -7.174823 0.783481 -15.477998 8.809715 -2.209848 36.427384 -7.484728 -18.606019 4.343035 0.000000 0.000000 0.000000 5.350720 -1.164492 12.964697 -4.323767 1.627949 -24.675802 -1.632178 4.500148 32.842082 11.263549 -4.348231 -27.833775 0.000000 0.000000 0.000000 -1.474392 -1.619399 0.475267 -27.636677 -7.662548 -3.458212 15.023182 -21.591747 -2.104157 0.000000 0.000000 0.000000 16.470842 -11.679836 -6.234796 28.844031 8.759644 -3.154704 -15.249152 24.835285 -1.739763 0.000000 0.000000 0.000000 
0.020004 0.937337 0.067973 -1.753370 -1.582999 -0.742917 -1.671923 1.159969 10.551136 -3.703728 0.420844 -0.981724 7.723287 16.329936 3.708943 0.000000 0.000000 0.000000 -6.158891 1.063315 -18.695467 9.102679 -2.316747 36.805777 -8.009387 -19.704782 4.171192 0.000000 0.000000 0.000000 5.778065 -1.300717 14.017184 -3.658173 1.470666 -23.846249 -2.814869 3.507774 31.918673 11.424733 -4.662851 -27.563527 0.000000 0.000000 0.000000 -3.744979 -3.669450 1.193069 -28.234731 -8.721214 -3.294703 14.472224 -21.230284 -1.885344 0.000000 0.000000 0.000000 18.316174 -10.521396 -6.098061 30.331844 9.766927 -2.947087 -14.182962 26.039150 -1.697282 0.000000 0.000000 0.000000 
0.018402 0.935312 0.086226 -2.275317 -2.001499 -1.122294 -0.758535 1.250764 12.271693 -4.195650 0.475979 -1.143870 8.045087 16.893630 2.837383 0.000000 0.000000 0.000000 -5.249849 1.409788 -22.006503 8.442671 -1.887589 34.271671 -7.756863 -19.228969 5.173602 0.000000 0.000000 0.000000 5.783043 -1.396037 15.225781 -3.093491 1.326918 -23.814097 -3.488723 2.264884 31.949233 11.775441 -4.996752 -28.303113 0.000000 0.000000 0.000000 -6.256288 -5.470816 1.990080 -29.244257 -9.580210 -3.280519 13.613408 -23.431624 -1.811613 0.000000 0.000000 0.000000 20.395389 -9.547763 -6.221842 32.105167 10.882932 -2.701770 -12.392282 28.997008 -1.601765 0.000000 0.000000 0.000000 
